<svg xmlns="http://www.w3.org/2000/svg" xmlns:xlink="http://www.w3.org/1999/xlink" width="500" zoomAndPan="magnify" viewBox="0 0 375 374.999991" height="500" preserveAspectRatio="xMidYMid meet" version="1.0"><defs><g/><clipPath id="e302089776"><path d="M 57.351562 172.328125 L 316.363281 172.328125 L 316.363281 202.378906 L 57.351562 202.378906 Z M 57.351562 172.328125 " clip-rule="nonzero"/></clipPath></defs><rect x="-37.5" width="450" fill="#ffffff" y="-37.499999" height="449.999989" fill-opacity="1"/><rect x="-37.5" width="450" fill="#fafafa" y="-37.499999" height="449.999989" fill-opacity="1"/><g fill="#000000" fill-opacity="1"><g transform="translate(205.356064, 242.722733)"><g><path d="M 60.890625 -114.9375 L 15.734375 -114.9375 L 15.734375 -112.203125 L 31.46875 -112.203125 L 31.46875 -3.078125 C 31.46875 3.078125 30.613281 7.492188 28.90625 10.171875 C 27.195312 12.859375 24.175781 14.203125 19.84375 14.203125 C 17.5625 14.203125 15.453125 13.769531 13.515625 12.90625 C 11.578125 12.050781 10.035156 10.882812 8.890625 9.40625 C 11.628906 9.40625 13.679688 8.578125 15.046875 6.921875 C 16.421875 5.273438 17.109375 3.195312 17.109375 0.6875 C 17.109375 -1.25 16.476562 -2.988281 15.21875 -4.53125 C 13.96875 -6.070312 12.144531 -6.84375 9.75 -6.84375 C 7.125 -6.84375 5.179688 -6.015625 3.921875 -4.359375 C 2.671875 -2.703125 2.046875 -0.566406 2.046875 2.046875 C 2.046875 3.648438 2.445312 5.332031 3.25 7.09375 C 4.050781 8.863281 5.25 10.488281 6.84375 11.96875 C 8.4375 13.457031 10.398438 14.710938 12.734375 15.734375 C 15.078125 16.765625 17.789062 17.28125 20.875 17.28125 C 39 17.28125 48.0625 8.328125 48.0625 -9.578125 L 48.0625 -112.203125 L 60.890625 -112.203125 Z M 60.890625 -114.9375 "/></g></g></g><g fill="#000000" fill-opacity="1"><g transform="translate(75.716095, 245.249984)"><g><path d="M 48.828125 -116.765625 L 1.90625 -116.765625 L 1.90625 -113.984375 L 16.859375 -113.984375 L 55.953125 1.734375 L 59.078125 1.734375 L 96.25 -113.984375 L 108.765625 -113.984375 L 108.765625 -116.765625 L 77.671875 -116.765625 L 77.671875 -113.984375 L 92.609375 -113.984375 L 63.765625 -24.15625 L 33.1875 -113.984375 L 48.828125 -113.984375 Z M 48.828125 -116.765625 "/></g></g></g><g clip-path="url(#e302089776)"><path fill="#fafafa" d="M 57.351562 172.328125 L 316.421875 172.328125 L 316.421875 202.378906 L 57.351562 202.378906 Z M 57.351562 172.328125 " fill-opacity="1" fill-rule="nonzero"/></g><g fill="#000000" fill-opacity="1"><g transform="translate(114.835162, 191.496863)"><g><path d="M 10.171875 -9.421875 L 6.09375 0 L 3.9375 0 L -0.125 -9.421875 L 2.234375 -9.421875 L 5.09375 -2.6875 L 8 -9.421875 Z M 10.171875 -9.421875 "/></g></g></g><g fill="#000000" fill-opacity="1"><g transform="translate(129.519536, 191.496863)"><g><path d="M 7.3125 -2.015625 L 2.953125 -2.015625 L 2.109375 0 L -0.125 0 L 4.078125 -9.421875 L 6.234375 -9.421875 L 10.4375 0 L 8.15625 0 Z M 6.625 -3.671875 L 5.140625 -7.28125 L 3.640625 -3.671875 Z M 6.625 -3.671875 "/></g></g></g><g fill="#000000" fill-opacity="1"><g transform="translate(144.472846, 191.496863)"><g><path d="M 3.0625 -7.640625 L 0.046875 -7.640625 L 0.046875 -9.421875 L 8.265625 -9.421875 L 8.265625 -7.640625 L 5.25 -7.640625 L 5.25 0 L 3.0625 0 Z M 3.0625 -7.640625 "/></g></g></g><g fill="#000000" fill-opacity="1"><g transform="translate(157.436004, 191.496863)"><g><path d="M 4.203125 0.15625 C 3.460938 0.15625 2.742188 0.0546875 2.046875 -0.140625 C 1.359375 -0.335938 0.800781 -0.597656 0.375 -0.921875 L 1.109375 -2.5625 C 1.515625 -2.269531 1.992188 -2.035156 2.546875 -1.859375 C 3.109375 -1.679688 3.664062 -1.59375 4.21875 -1.59375 C 4.84375 -1.59375 5.300781 -1.679688 5.59375 -1.859375 C 5.894531 -2.046875 6.046875 -2.289062 6.046875 -2.59375 C 6.046875 -2.820312 5.957031 -3.007812 5.78125 -3.15625 C 5.601562 -3.300781 5.375 -3.414062 5.09375 -3.5 C 4.820312 -3.59375 4.457031 -3.695312 4 -3.8125 C 3.28125 -3.976562 2.691406 -4.144531 2.234375 -4.3125 C 1.773438 -4.488281 1.378906 -4.765625 1.046875 -5.140625 C 0.722656 -5.515625 0.5625 -6.015625 0.5625 -6.640625 C 0.5625 -7.191406 0.707031 -7.6875 1 -8.125 C 1.300781 -8.570312 1.75 -8.925781 2.34375 -9.1875 C 2.9375 -9.445312 3.664062 -9.578125 4.53125 -9.578125 C 5.132812 -9.578125 5.722656 -9.503906 6.296875 -9.359375 C 6.867188 -9.210938 7.367188 -9.007812 7.796875 -8.75 L 7.125 -7.09375 C 6.257812 -7.582031 5.390625 -7.828125 4.515625 -7.828125 C 3.910156 -7.828125 3.460938 -7.726562 3.171875 -7.53125 C 2.878906 -7.332031 2.734375 -7.070312 2.734375 -6.75 C 2.734375 -6.425781 2.898438 -6.1875 3.234375 -6.03125 C 3.566406 -5.875 4.082031 -5.71875 4.78125 -5.5625 C 5.5 -5.394531 6.082031 -5.222656 6.53125 -5.046875 C 6.988281 -4.878906 7.378906 -4.613281 7.703125 -4.25 C 8.035156 -3.882812 8.203125 -3.390625 8.203125 -2.765625 C 8.203125 -2.222656 8.050781 -1.726562 7.75 -1.28125 C 7.457031 -0.84375 7.007812 -0.492188 6.40625 -0.234375 C 5.800781 0.0234375 5.066406 0.15625 4.203125 0.15625 Z M 4.203125 0.15625 "/></g></g></g><g fill="#000000" fill-opacity="1"><g transform="translate(170.668099, 191.496863)"><g><path d="M 7.3125 -2.015625 L 2.953125 -2.015625 L 2.109375 0 L -0.125 0 L 4.078125 -9.421875 L 6.234375 -9.421875 L 10.4375 0 L 8.15625 0 Z M 6.625 -3.671875 L 5.140625 -7.28125 L 3.640625 -3.671875 Z M 6.625 -3.671875 "/></g></g></g><g fill="#000000" fill-opacity="1"><g transform="translate(185.621407, 191.496863)"><g/></g></g><g fill="#000000" fill-opacity="1"><g transform="translate(194.079825, 191.496863)"><g><path d="M 2.859375 0.15625 C 2.210938 0.15625 1.625 0.0390625 1.09375 -0.1875 C 0.5625 -0.425781 0.125 -0.765625 -0.21875 -1.203125 L 1 -2.65625 C 1.507812 -1.96875 2.09375 -1.625 2.75 -1.625 C 3.632812 -1.625 4.078125 -2.144531 4.078125 -3.1875 L 4.078125 -7.671875 L 0.765625 -7.671875 L 0.765625 -9.421875 L 6.25 -9.421875 L 6.25 -3.3125 C 6.25 -2.15625 5.957031 -1.285156 5.375 -0.703125 C 4.800781 -0.128906 3.960938 0.15625 2.859375 0.15625 Z M 2.859375 0.15625 "/></g></g></g><g fill="#000000" fill-opacity="1"><g transform="translate(206.007573, 191.496863)"><g><path d="M 5.671875 0.15625 C 4.691406 0.15625 3.8125 -0.0507812 3.03125 -0.46875 C 2.25 -0.894531 1.632812 -1.476562 1.1875 -2.21875 C 0.75 -2.957031 0.53125 -3.785156 0.53125 -4.703125 C 0.53125 -5.628906 0.75 -6.460938 1.1875 -7.203125 C 1.632812 -7.941406 2.25 -8.519531 3.03125 -8.9375 C 3.8125 -9.363281 4.691406 -9.578125 5.671875 -9.578125 C 6.648438 -9.578125 7.53125 -9.363281 8.3125 -8.9375 C 9.09375 -8.519531 9.707031 -7.941406 10.15625 -7.203125 C 10.601562 -6.460938 10.828125 -5.628906 10.828125 -4.703125 C 10.828125 -3.785156 10.601562 -2.957031 10.15625 -2.21875 C 9.707031 -1.476562 9.09375 -0.894531 8.3125 -0.46875 C 7.53125 -0.0507812 6.648438 0.15625 5.671875 0.15625 Z M 5.671875 -1.6875 C 6.234375 -1.6875 6.738281 -1.816406 7.1875 -2.078125 C 7.632812 -2.335938 7.984375 -2.691406 8.234375 -3.140625 C 8.492188 -3.597656 8.625 -4.117188 8.625 -4.703125 C 8.625 -5.285156 8.492188 -5.804688 8.234375 -6.265625 C 7.984375 -6.722656 7.632812 -7.078125 7.1875 -7.328125 C 6.738281 -7.585938 6.234375 -7.71875 5.671875 -7.71875 C 5.117188 -7.71875 4.617188 -7.585938 4.171875 -7.328125 C 3.722656 -7.078125 3.367188 -6.722656 3.109375 -6.265625 C 2.859375 -5.804688 2.734375 -5.285156 2.734375 -4.703125 C 2.734375 -4.117188 2.859375 -3.597656 3.109375 -3.140625 C 3.367188 -2.691406 3.722656 -2.335938 4.171875 -2.078125 C 4.617188 -1.816406 5.117188 -1.6875 5.671875 -1.6875 Z M 5.671875 -1.6875 "/></g></g></g><g fill="#000000" fill-opacity="1"><g transform="translate(222.009754, 191.496863)"><g><path d="M 4.203125 0.15625 C 3.460938 0.15625 2.742188 0.0546875 2.046875 -0.140625 C 1.359375 -0.335938 0.800781 -0.597656 0.375 -0.921875 L 1.109375 -2.5625 C 1.515625 -2.269531 1.992188 -2.035156 2.546875 -1.859375 C 3.109375 -1.679688 3.664062 -1.59375 4.21875 -1.59375 C 4.84375 -1.59375 5.300781 -1.679688 5.59375 -1.859375 C 5.894531 -2.046875 6.046875 -2.289062 6.046875 -2.59375 C 6.046875 -2.820312 5.957031 -3.007812 5.78125 -3.15625 C 5.601562 -3.300781 5.375 -3.414062 5.09375 -3.5 C 4.820312 -3.59375 4.457031 -3.695312 4 -3.8125 C 3.28125 -3.976562 2.691406 -4.144531 2.234375 -4.3125 C 1.773438 -4.488281 1.378906 -4.765625 1.046875 -5.140625 C 0.722656 -5.515625 0.5625 -6.015625 0.5625 -6.640625 C 0.5625 -7.191406 0.707031 -7.6875 1 -8.125 C 1.300781 -8.570312 1.75 -8.925781 2.34375 -9.1875 C 2.9375 -9.445312 3.664062 -9.578125 4.53125 -9.578125 C 5.132812 -9.578125 5.722656 -9.503906 6.296875 -9.359375 C 6.867188 -9.210938 7.367188 -9.007812 7.796875 -8.75 L 7.125 -7.09375 C 6.257812 -7.582031 5.390625 -7.828125 4.515625 -7.828125 C 3.910156 -7.828125 3.460938 -7.726562 3.171875 -7.53125 C 2.878906 -7.332031 2.734375 -7.070312 2.734375 -6.75 C 2.734375 -6.425781 2.898438 -6.1875 3.234375 -6.03125 C 3.566406 -5.875 4.082031 -5.71875 4.78125 -5.5625 C 5.5 -5.394531 6.082031 -5.222656 6.53125 -5.046875 C 6.988281 -4.878906 7.378906 -4.613281 7.703125 -4.25 C 8.035156 -3.882812 8.203125 -3.390625 8.203125 -2.765625 C 8.203125 -2.222656 8.050781 -1.726562 7.75 -1.28125 C 7.457031 -0.84375 7.007812 -0.492188 6.40625 -0.234375 C 5.800781 0.0234375 5.066406 0.15625 4.203125 0.15625 Z M 4.203125 0.15625 "/></g></g></g><g fill="#000000" fill-opacity="1"><g transform="translate(235.241846, 191.496863)"><g><path d="M 9.75 -9.421875 L 9.75 0 L 7.578125 0 L 7.578125 -3.859375 L 3.296875 -3.859375 L 3.296875 0 L 1.109375 0 L 1.109375 -9.421875 L 3.296875 -9.421875 L 3.296875 -5.703125 L 7.578125 -5.703125 L 7.578125 -9.421875 Z M 9.75 -9.421875 "/></g></g></g><g fill="#000000" fill-opacity="1"><g transform="translate(250.759939, 191.496863)"><g><path d="M 1.109375 -9.421875 L 3.296875 -9.421875 L 3.296875 0 L 1.109375 0 Z M 1.109375 -9.421875 "/></g></g></g></svg>