<svg xmlns="http://www.w3.org/2000/svg" xmlns:xlink="http://www.w3.org/1999/xlink" width="500" zoomAndPan="magnify" viewBox="0 0 375 374.999991" height="500" preserveAspectRatio="xMidYMid meet" version="1.0"><defs><g/><clipPath id="52fcdc07a8"><path d="M 37 37 L 337.5 37 L 337.5 337.5 L 37 337.5 Z M 37 37 " clip-rule="nonzero"/></clipPath><clipPath id="f0ef2fcf76"><path d="M 67.5 37.5 L 307.5 37.5 C 324.070312 37.5 337.5 50.929688 337.5 67.5 L 337.5 307.5 C 337.5 324.070312 324.070312 337.5 307.5 337.5 L 67.5 337.5 C 50.929688 337.5 37.5 324.070312 37.5 307.5 L 37.5 67.5 C 37.5 50.929688 50.929688 37.5 67.5 37.5 Z M 67.5 37.5 " clip-rule="nonzero"/></clipPath></defs><g clip-path="url(#52fcdc07a8)"><g clip-path="url(#f0ef2fcf76)"><path fill="#000000" d="M 37.5 37.5 L 337.5 37.5 L 337.5 337.5 L 37.5 337.5 Z M 37.5 37.5 " fill-opacity="1" fill-rule="nonzero"/></g></g><g fill="#ffffff" fill-opacity="1"><g transform="translate(100.906726, 278.556236)"><g><path d="M 76.984375 -184.109375 L 3.015625 -184.109375 L 3.015625 -179.71875 L 26.578125 -179.71875 L 88.21875 2.734375 L 93.15625 2.734375 L 151.78125 -179.71875 L 171.5 -179.71875 L 171.5 -184.109375 L 122.46875 -184.109375 L 122.46875 -179.71875 L 146.03125 -179.71875 L 100.546875 -38.078125 L 52.328125 -179.71875 L 76.984375 -179.71875 Z M 76.984375 -184.109375 "/></g></g></g></svg>